<?xml version="1.0" encoding="UTF-8" standalone="no"?>
<!-- Created with Inkscape (http://www.inkscape.org/) -->

<svg
   width="194.08145mm"
   height="49.871571mm"
   viewBox="0 0 194.08145 49.871571"
   version="1.1"
   id="svg1"
   xml:space="preserve"
   inkscape:version="1.4.2 (f4327f4, 2025-05-13)"
   sodipodi:docname="smithSVGLogo.svg"
   xmlns:inkscape="http://www.inkscape.org/namespaces/inkscape"
   xmlns:sodipodi="http://sodipodi.sourceforge.net/DTD/sodipodi-0.dtd"
   xmlns="http://www.w3.org/2000/svg"
   xmlns:svg="http://www.w3.org/2000/svg"><sodipodi:namedview
     id="namedview1"
     pagecolor="#ffffff"
     bordercolor="#000000"
     borderopacity="0.25"
     inkscape:showpageshadow="2"
     inkscape:pageopacity="0.0"
     inkscape:pagecheckerboard="0"
     inkscape:deskcolor="#d1d1d1"
     inkscape:document-units="mm"
     inkscape:zoom="0.6236289"
     inkscape:cx="-2491.0648"
     inkscape:cy="-829.82043"
     inkscape:window-width="1366"
     inkscape:window-height="697"
     inkscape:window-x="-8"
     inkscape:window-y="-8"
     inkscape:window-maximized="1"
     inkscape:current-layer="layer1"><inkscape:page
       x="0"
       y="0"
       width="194.08145"
       height="49.871571"
       id="page2"
       margin="0"
       bleed="0" /></sodipodi:namedview><defs
     id="defs1" /><g
     inkscape:label="Layer 1"
     inkscape:groupmode="layer"
     id="layer1"
     transform="translate(-6.556141,-135.06887)"><g
       id="g22"><g
         id="g32"
         transform="translate(-2.8940258,-13.299913)"><path
           style="fill:#caa25e"
           d="m 20.647408,197.97573 c -5.329764,-1.21558 -9.465737,-5.44314 -10.7799751,-11.01868 -0.3800264,-1.61223 -0.5777364,-7.12042 -0.2555792,-7.12042 0.083667,0 1.1405283,0.91192 2.3485803,2.02649 2.13126,1.96632 2.200788,2.06844 2.342383,3.44037 0.308611,2.99015 2.372993,6.01749 5.07879,7.44786 1.171894,0.6195 1.62496,0.70002 3.96875,0.70533 1.455208,0.003 2.960535,-0.0824 3.345171,-0.19039 0.645455,-0.18125 0.784134,-0.0611 1.799861,1.55884 0.605287,0.96538 1.043965,1.90261 0.97484,2.08275 -0.408304,1.06402 -5.916539,1.7307 -8.822821,1.06785 z m 9.854181,-7.03042 c -4.622645,-0.82118 -8.567341,-3.98514 -10.386189,-8.33055 -0.830727,-1.98469 -1.171499,-4.20947 -1.080313,-7.05297 l 0.08194,-2.55506 1.931502,1.76131 c 1.868807,1.70413 1.943656,1.82 2.305979,3.56967 0.762133,3.68038 2.573294,6.28195 5.248118,7.53843 4.982678,2.3406 10.300766,0.38674 12.693259,-4.66348 l 0.839893,-1.7729 0.132291,-15.5355 0.132292,-15.53549 2.062324,1.90945 2.062323,1.90946 -0.07795,14.02291 -0.07795,14.02292 -0.857564,2.1269 c -2.049288,5.08256 -6.464446,8.32302 -11.842436,8.69164 -1.018646,0.0698 -2.444029,0.0218 -3.167518,-0.10674 z m 52.880727,-5.95371 c -0.700674,-0.70067 -0.684252,-1.41498 0.05188,-2.25669 0.240441,-0.27492 0.303461,-0.74331 0.192232,-1.42873 -0.131595,-0.81093 -0.06545,-1.09287 0.323023,-1.37693 0.681558,-0.49837 1.548611,-0.44522 2.066147,0.12665 0.585928,0.64745 0.551779,1.0806 -0.143545,1.82074 l -0.581428,0.6189 0.571123,0.57112 c 0.513121,0.51312 0.58848,0.52589 0.742027,0.12576 0.186993,-0.4873 0.908038,-0.61704 0.908038,-0.16339 0,0.15509 -0.128552,0.52218 -0.285672,0.81576 -0.224062,0.41866 -0.186371,0.64351 0.174767,1.04256 0.592096,0.65426 0.292569,0.95676 -0.517879,0.52302 -0.469125,-0.25107 -0.765816,-0.26232 -1.172832,-0.0445 -0.865247,0.46307 -1.610341,0.34328 -2.327884,-0.37427 z m 2.186902,-0.53822 c 0.233242,-0.60782 -0.947949,-1.78761 -1.40771,-1.40605 -0.446443,0.37052 -0.461855,1.46413 -0.02313,1.64116 0.661767,0.26703 1.27694,0.16595 1.43084,-0.23511 z m -0.183687,-3.14995 c 0.363591,-0.4381 0.157277,-0.93763 -0.387257,-0.93763 -0.476121,0 -0.747107,0.45351 -0.560916,0.93871 0.187946,0.48978 0.541131,0.48938 0.948173,-0.001 z m 10.328369,1.31133 v -3.04271 h 1.984375 c 1.557148,0 1.984375,0.0826 1.984375,0.38367 0,0.28149 -0.405178,0.40481 -1.521354,0.46302 -1.496372,0.078 -1.521355,0.0924 -1.521355,0.8731 0,0.771 0.03982,0.79604 1.389063,0.87373 0.999222,0.0575 1.389062,0.18747 1.389062,0.46302 0,0.28791 -0.361425,0.38304 -1.455208,0.38304 H 96.50765 v 1.32292 c 0,0.99954 -0.09701,1.32292 -0.396875,1.32292 -0.329771,0 -0.396875,-0.51447 -0.396875,-3.04271 z m 9.525,2.86979 c -1.00493,-0.39348 -1.31102,-1.22955 -1.31703,-3.5974 -0.005,-1.88409 0.068,-2.3151 0.39099,-2.3151 0.3197,0 0.39687,0.41157 0.39687,2.11667 0,1.76389 0.0882,2.20486 0.52917,2.64583 0.63683,0.63683 1.01605,0.66164 1.79321,0.11729 0.52871,-0.37032 0.58804,-0.63726 0.58804,-2.64583 0,-1.80935 0.0754,-2.23396 0.39687,-2.23396 0.62351,0 0.56709,4.49562 -0.0661,5.2704 -0.46837,0.57307 -1.97641,0.93012 -2.71198,0.6421 z m 7.9375,-2.87954 v -3.09656 l 1.56524,0.11322 c 0.86088,0.0623 1.75385,0.26975 1.98437,0.46107 0.64269,0.53338 0.55077,2.27752 -0.14573,2.76537 l -0.56488,0.39566 0.56488,0.95739 c 0.64636,1.09551 0.70442,1.45651 0.23414,1.45583 -0.1819,-2.6e-4 -0.66908,-0.53604 -1.08263,-1.19062 -0.99508,-1.57508 -1.70037,-1.60863 -1.81257,-0.0862 -0.0447,0.60716 -0.23019,1.15286 -0.41209,1.21268 -0.25194,0.0829 -0.33073,-0.62894 -0.33073,-2.9878 z m 2.8575,-0.44004 c 0.80298,-0.80298 0.0362,-1.79917 -1.3849,-1.79917 -0.6156,0 -0.67885,0.0986 -0.67885,1.05833 0,1.02092 0.0309,1.05834 0.87313,1.05834 0.48021,0 1.016,-0.14288 1.19062,-0.3175 z m 5.60917,0.43039 c 0,-2.77345 0.0436,-3.05381 0.46302,-2.97406 0.25466,0.0484 1.14763,1.09241 1.98437,2.31997 l 1.52136,2.23192 v -2.30057 c 0,-1.86856 0.0745,-2.30057 0.39687,-2.30057 0.32977,0 0.39688,0.51447 0.39688,3.04271 0,2.46316 -0.0721,3.04271 -0.37865,3.04271 -0.20826,0 -1.07147,-0.98227 -1.91823,-2.18282 l -1.53958,-2.18281 -0.0768,2.18281 c -0.0599,1.70191 -0.16192,2.18282 -0.46302,2.18282 -0.31626,0 -0.38617,-0.55434 -0.38617,-3.06211 z m 9.7069,2.89123 c -0.10005,-0.10004 -0.1819,-1.48047 -0.1819,-3.06762 0,-2.60589 0.0449,-2.87707 0.46302,-2.79655 0.40721,0.0784 0.46302,0.4369 0.46302,2.97391 0,2.68615 -0.19415,3.44025 -0.74414,2.89026 z m 6.87365,-0.006 c -0.097,-0.097 -0.17639,-1.28764 -0.17639,-2.64583 v -2.46945 h -0.79375 c -0.52916,0 -0.79375,-0.13229 -0.79375,-0.39687 0,-0.31971 0.41158,-0.39688 2.11667,-0.39688 1.6636,0 2.11667,0.0814 2.11667,0.38011 0,0.23545 -0.32726,0.41167 -0.8599,0.46302 l -0.85989,0.0829 -0.0757,2.57969 c -0.0699,2.38064 -0.20713,2.87009 -0.67393,2.4033 z m 7.84456,-0.0777 c -0.90464,-0.38377 -1.14178,-1.1242 -1.14178,-3.56496 0,-1.8113 0.0776,-2.26635 0.38657,-2.26635 0.30363,0 0.40298,0.49478 0.46303,2.30578 0.0723,2.17981 0.11453,2.32711 0.77356,2.69624 0.62493,0.35003 0.76876,0.34352 1.38906,-0.0629 0.65613,-0.42992 0.69195,-0.56947 0.69195,-2.69624 0,-1.81726 0.0753,-2.24286 0.39687,-2.24286 0.62351,0 0.56709,4.49562 -0.0661,5.2704 -0.52268,0.63952 -2.02242,0.93028 -2.89312,0.56091 z m 8.03596,0.0832 c -0.10005,-0.10004 -0.18191,-1.47174 -0.18191,-3.04822 v -2.86632 h 1.34031 c 1.32188,0 2.31065,0.33057 2.69054,0.89951 0.37556,0.56245 0.19891,1.75457 -0.32668,2.20459 -0.65531,0.5611 -0.65531,0.82063 0,1.6584 0.6168,0.78853 0.67474,1.32292 0.14345,1.32292 -0.21215,0 -0.69971,-0.53578 -1.08348,-1.19063 -0.92748,-1.58262 -1.64388,-1.61799 -1.75674,-0.0867 -0.077,1.04488 -0.42314,1.50882 -0.82549,1.10646 z m 2.8419,-3.4199 c 0.22868,-0.22867 0.41578,-0.51782 0.41578,-0.64256 0,-0.48596 -0.86878,-1.05833 -1.6064,-1.05833 -0.72761,0 -0.77485,0.0645 -0.77485,1.05833 0,0.9938 0.0472,1.05834 0.77485,1.05834 0.42617,0 0.96195,-0.1871 1.19062,-0.41578 z m 5.70744,0.54807 v -3.04271 h 1.98438 c 1.5875,0 1.98437,0.0794 1.98437,0.39688 0,0.30868 -0.35277,0.39687 -1.5875,0.39687 h -1.5875 v 0.92604 0.92604 h 1.32292 c 0.99954,0 1.32292,0.097 1.32292,0.39688 0,0.29986 -0.32338,0.39687 -1.32292,0.39687 -1.29352,0 -1.32292,0.0176 -1.32292,0.79375 v 0.79375 h 1.5875 c 1.41112,0 1.5875,0.0588 1.5875,0.52917 0,0.48213 -0.17638,0.52917 -1.98437,0.52917 h -1.98438 z m 8.92969,2.62679 c -0.41357,-0.22436 -0.7276,-0.61948 -0.7276,-0.91545 0,-0.66574 0.38724,-0.66265 1.05833,0.008 0.63648,0.63648 1.39652,0.68122 1.87049,0.11011 0.50013,-0.60262 0.0568,-1.15327 -1.34552,-1.67129 -0.86002,-0.31769 -1.24897,-0.63727 -1.44135,-1.18429 -0.23132,-0.65776 -0.17353,-0.82656 0.4735,-1.38311 0.89585,-0.77058 2.0217,-0.81391 2.86097,-0.11013 0.5124,0.42969 0.55721,0.56816 0.24941,0.77071 -0.24943,0.16415 -0.57767,0.11425 -0.97923,-0.14886 -0.80371,-0.52661 -1.74733,-0.23272 -1.63755,0.51001 0.0569,0.38519 0.4244,0.66574 1.21673,0.92892 1.4277,0.47424 2.02711,1.29986 1.65474,2.27925 -0.43646,1.14799 -1.93692,1.51962 -3.25292,0.80568 z M 54.438899,182.35018 c 0,-0.35506 1.40514,-0.39419 11.972396,-0.33343 7.759314,0.0446 11.972396,0.16195 11.972396,0.33343 0,0.17147 -4.213082,0.2888 -11.972396,0.33342 -10.567256,0.0608 -11.972396,0.0216 -11.972396,-0.33342 z m 125.147921,0 c 0,-0.35506 1.40514,-0.39419 11.97239,-0.33343 7.75932,0.0446 11.9724,0.16195 11.9724,0.33343 0,0.17147 -4.21308,0.2888 -11.9724,0.33342 -10.56725,0.0608 -11.97239,0.0216 -11.97239,-0.33342 z M 12.304002,171.9112 c -1.930909,-1.80463 -2.050521,-1.98155 -2.050521,-3.03289 0,-1.46262 0.646403,-3.61699 1.659299,-5.53019 2.726266,-5.14948 8.931626,-7.98753 14.797991,-6.76791 4.803165,0.99858 9.141691,5.24817 10.244618,10.03461 0.149961,0.6508 0.275567,2.5497 0.279125,4.21977 l 0.0065,3.0365 -2.082312,-2.07009 c -1.973696,-1.96212 -2.089812,-2.14277 -2.226092,-3.4632 -0.168222,-1.62991 -1.159509,-3.71942 -2.433573,-5.12965 -2.542236,-2.81395 -7.318203,-3.62808 -10.815856,-1.84371 -1.613281,0.82303 -3.441466,2.69649 -4.270104,4.37584 -0.666439,1.35064 -0.771989,1.91052 -0.906398,4.80799 l -0.152124,3.27934 z m 44.043043,1.0285 c -1.002265,-0.50943 -1.908146,-1.60954 -1.908146,-2.31727 0,-0.13456 0.352036,-0.31506 0.782302,-0.40111 0.631876,-0.12638 0.933216,-0.006 1.567147,0.62838 0.564262,0.56427 1.039308,0.78485 1.690233,0.78485 1.799105,0 2.40485,-1.98072 0.792329,-2.59083 -0.402033,-0.15211 -1.300977,-0.48272 -1.997652,-0.73468 -1.443898,-0.52221 -2.569776,-1.69378 -2.569776,-2.67407 0,-1.02126 0.717375,-2.30788 1.566453,-2.80944 0.871058,-0.51455 2.945619,-0.59829 3.808754,-0.15375 0.93435,0.48122 1.768543,1.34745 1.768543,1.83646 0,0.73788 -1.281384,0.90757 -1.96979,0.26085 -0.68014,-0.63896 -2.305687,-0.73282 -2.780623,-0.16056 -0.17451,0.21027 -0.278386,0.65292 -0.230835,0.98367 0.06914,0.48088 0.475178,0.74462 2.026767,1.31646 2.247369,0.82826 2.822468,1.27523 3.230143,2.5105 0.245377,0.7435 0.213364,1.06098 -0.188477,1.86916 -1.013939,2.03923 -3.423305,2.75133 -5.587372,1.65138 z M 183.42328,172.857 c -3.69419,-1.74392 -4.0898,-7.14896 -0.6986,-9.54458 2.34771,-1.65848 5.87846,-1.04169 7.51291,1.31242 1.48163,2.134 1.21357,5.46417 -0.58457,7.26231 -1.6551,1.6551 -4.00366,2.02073 -6.22974,0.96985 z m 4.39264,-1.82738 c 1.82438,-1.22769 2.01646,-4.28362 0.37258,-5.92751 -0.55084,-0.55084 -1.15566,-0.88671 -1.62991,-0.90513 -2.22931,-0.0866 -3.07945,0.35221 -3.81313,1.96814 -0.61943,1.36428 -0.63333,1.98256 -0.0759,3.37569 0.80865,2.02101 3.28915,2.7386 5.14637,1.48881 z M 66.609732,167.79809 v -5.42396 h 0.878327 c 0.805991,0 1.004106,0.18517 2.405599,2.2484 0.84,1.23661 1.614806,2.30249 1.721792,2.36861 0.106986,0.0661 0.906497,-0.91589 1.776691,-2.18225 1.458685,-2.12276 1.658429,-2.30887 2.559256,-2.38458 l 0.977086,-0.0821 v 5.43993 5.43993 h -1.050654 -1.050654 l -0.07382,-3.47396 -0.07383,-3.47397 -1.299951,1.88647 c -0.714973,1.03755 -1.452811,1.88646 -1.63964,1.88646 -0.186829,0 -0.97107,-0.90475 -1.742757,-2.01055 l -1.403069,-2.01054 -0.07361,3.59804 -0.07361,3.59805 h -0.918575 -0.918576 z m 15.610417,0 v -5.42396 h 0.926042 0.926042 v 5.42396 5.42396 h -0.926042 -0.926042 z m 9.221502,3.10886 c -0.0214,-1.27331 -0.03478,-3.29183 -0.02973,-4.4856 l 0.0092,-2.1705 -1.491621,-0.0785 c -1.463532,-0.077 -1.491621,-0.0934 -1.491621,-0.87221 v -0.79375 l 3.902604,-0.0732 3.902604,-0.0732 v 0.93311 0.93312 H 94.787858 93.33265 v 4.49791 4.49792 h -0.926042 -0.926042 z m 9.034749,-3.10886 v -5.42396 h 0.92604 0.92604 v 2.24896 2.24896 h 2.51354 2.51355 v -2.24896 -2.24896 h 0.92604 0.92604 v 5.42396 5.42396 h -0.92604 -0.92604 v -2.24896 -2.24896 h -2.51355 -2.51354 v 2.24896 2.24896 h -0.92604 -0.92604 z m 18.78542,-0.0168 v -5.44072 l 0.85989,0.0829 0.8599,0.0829 0.0707,5.35781 0.0707,5.35781 h -0.93059 -0.93059 z m 6.67525,0.0829 0.0716,-5.35781 0.8346,-0.081 c 0.80215,-0.0779 0.9359,0.0678 3.43958,3.74614 l 2.60499,3.82716 0.0733,-3.82851 0.0733,-3.82851 0.85273,0.0824 0.85273,0.0824 0.0716,5.35781 0.0716,5.35781 -0.99767,-0.0105 c -0.98567,-0.0104 -1.02788,-0.0556 -3.5112,-3.75882 l -2.51354,-3.74831 -0.0734,3.75882 -0.0734,3.75882 h -0.92425 -0.92426 z m 15.81433,0.85989 v -4.49791 h -1.47197 -1.47197 l 0.0829,-0.8599 0.0829,-0.85989 h 3.83645 3.83646 l 0.0829,0.85989 0.0829,0.8599 h -1.60426 -1.60427 v 4.49791 4.49792 h -0.92604 -0.92604 z m 8.99583,-0.92604 v -5.42396 h 3.57188 3.57187 v 0.92605 0.92604 h -2.65966 -2.65966 l 0.08,1.38906 0.08,1.38906 1.98437,0.01 c 2.65897,0.0134 2.64584,0.009 2.64584,0.91605 v 0.79375 h -2.38125 -2.38125 v 1.44596 1.44595 l 2.71198,0.0754 2.71198,0.0754 0.0837,0.72761 0.0837,0.7276 h -3.72174 -3.72175 z m 11.64167,-0.0308 v -5.45473 l 2.57969,0.11176 c 2.91434,0.12625 4.05537,0.56235 4.69187,1.79321 0.7974,1.54199 0.15391,3.94897 -1.16789,4.36849 -0.30108,0.0956 -0.54742,0.28269 -0.54742,0.41584 0,0.13315 0.49041,1.04786 1.0898,2.03269 0.59939,0.98483 1.1422,1.87989 1.20624,1.98903 0.064,0.10914 -0.35642,0.19844 -0.93437,0.19844 -1.02895,0 -1.07467,-0.0412 -2.19843,-1.98113 -1.05478,-1.82086 -1.21718,-1.98139 -2.00751,-1.98437 l -0.8599,-0.003 v 1.98438 1.98437 h -0.92604 -0.92604 z m 5.28757,-0.75927 c 0.6801,-0.61548 0.68184,-1.57492 0.004,-2.25267 -0.40089,-0.40088 -0.88195,-0.52916 -1.98438,-0.52916 h -1.45521 v 1.75255 1.75256 l 1.45111,-0.12034 c 0.89376,-0.0741 1.65593,-0.3057 1.98438,-0.60294 z m 6.80408,6.01556 c -0.18084,-0.32502 -0.20797,-8.58074 -0.0318,-9.67237 0.14547,-0.90128 0.23642,-0.99873 0.86437,-0.92604 l 0.7018,0.0812 0.0716,5.35781 0.0716,5.35781 h -0.78361 c -0.43099,0 -0.8333,-0.0893 -0.89403,-0.19844 z m 20.98127,-5.26089 v -5.45933 l 2.57969,0.1253 c 2.916,0.14163 4.06698,0.58047 4.69187,1.78887 0.7974,1.54199 0.15391,3.94897 -1.16789,4.36849 -0.30108,0.0956 -0.54742,0.28269 -0.54742,0.41584 0,0.13315 0.49041,1.04786 1.0898,2.03269 0.59939,0.98483 1.1422,1.87989 1.20624,1.98903 0.064,0.10914 -0.36464,0.19844 -0.95262,0.19844 -1.05332,0 -1.08567,-0.0292 -2.19842,-1.98156 -1.04041,-1.82546 -1.19712,-1.98179 -1.98927,-1.98438 l -0.8599,-0.003 v 1.98438 1.98437 h -0.92604 -0.92604 z m 5.33562,-0.87925 c 1.14224,-1.4106 0.19065,-2.65725 -2.02833,-2.65725 h -1.45521 v 1.75255 1.75256 l 1.49917,-0.12432 c 1.14438,-0.0949 1.61399,-0.26613 1.98437,-0.72354 z"
           id="path33" /><path
           style="fill:#501b4c"
           d="M 21.759979,198.08741 C 14.360645,197.09554 9.2384824,190.40862 9.5149797,182.1017 l 0.077043,-2.31464 2.1544413,2.00859 c 2.093888,1.95214 2.162604,2.05509 2.444834,3.66281 0.386781,2.20329 1.638983,4.67946 2.978306,5.88946 2.289584,2.0685 5.78817,2.93483 8.693938,2.15281 0.800169,-0.21535 1.468548,-0.37154 1.485288,-0.34709 1.041863,1.52171 2.221451,3.66327 2.113744,3.83755 -0.208697,0.33768 -2.956239,1.03576 -4.657009,1.18323 -0.800365,0.0694 -2.170878,0.0302 -3.045586,-0.087 z m 61.981525,-12.84586 c -0.886814,-0.48111 -0.992661,-1.70028 -0.215123,-2.47781 0.445917,-0.44592 0.471691,-0.62075 0.198438,-1.34599 -0.284213,-0.75432 -0.254711,-0.88157 0.31058,-1.3396 0.794281,-0.64356 1.227577,-0.63827 1.888917,0.0231 0.67919,0.67919 0.66602,0.94553 -0.08383,1.69538 l -0.612995,0.61299 0.629031,0.7313 c 0.611519,0.71093 0.633128,0.71563 0.776146,0.16873 0.08091,-0.30942 0.232446,-0.56257 0.336741,-0.56257 0.408396,0 0.497508,0.34822 0.25341,0.99025 -0.196766,0.51753 -0.15321,0.78397 0.190191,1.16342 0.364728,0.40302 0.375675,0.49216 0.06044,0.49216 -0.211731,0 -0.507513,-0.12254 -0.657293,-0.27232 -0.186716,-0.18672 -0.515269,-0.14564 -1.045105,0.13066 -0.941964,0.49122 -1.107722,0.49043 -2.029546,-0.01 z m 2.063808,-0.66392 c 0.09725,-0.15734 -0.158175,-0.63573 -0.567601,-1.06308 -0.730814,-0.7628 -0.753573,-0.76783 -1.246088,-0.27532 -0.41015,0.41015 -0.446862,0.60411 -0.201225,1.06309 0.324412,0.60617 1.694716,0.7934 2.014914,0.27531 z m -0.198466,-3.63437 c -0.04665,-0.24484 -0.351485,-0.48321 -0.67742,-0.52972 -0.472799,-0.0675 -0.59261,0.044 -0.59261,0.55122 0,0.34967 0.07519,0.71095 0.16708,0.80284 0.299089,0.29909 1.190108,-0.36685 1.10295,-0.82434 z m 19.637264,4.38076 c -0.36093,-0.18614 -0.80814,-0.63375 -0.9938,-0.99468 -0.43919,-0.85383 -0.33816,-4.53749 0.12869,-4.69196 0.24725,-0.0818 0.33073,0.45902 0.33073,2.14268 0,2.43133 0.29995,3.08739 1.40796,3.07961 1.16095,-0.008 1.36342,-0.38669 1.50246,-2.80893 0.0866,-1.50897 0.24647,-2.34228 0.46302,-2.4137 0.24726,-0.0816 0.33073,0.46038 0.33073,2.14717 0,1.96602 -0.0766,2.34195 -0.59531,2.9225 -0.73874,0.82676 -1.7146,1.06076 -2.57448,0.61731 z m 40.97729,0.0442 c -0.97751,-0.36655 -1.295,-1.27708 -1.295,-3.71397 0,-1.5828 0.0845,-2.09839 0.33073,-2.01718 0.21655,0.0714 0.3764,0.90473 0.46302,2.4137 0.13782,2.40097 0.34738,2.80487 1.45521,2.80487 1.11005,0 1.31736,-0.40254 1.45521,-2.82576 0.0731,-1.28575 0.25059,-2.32551 0.39687,-2.32551 0.14849,0 0.29811,0.94604 0.341,2.15612 0.0685,1.93254 0.0136,2.22645 -0.52917,2.83431 -0.70859,0.79355 -1.651,1.03598 -2.61787,0.67342 z m 26.08938,0.0982 c -0.5984,-0.14492 -1.45521,-0.83549 -1.45521,-1.17287 0,-0.36816 0.70473,-0.25276 1.05833,0.1733 0.46912,0.56525 1.77527,0.50562 2.09711,-0.0957 0.35604,-0.66526 -0.11139,-1.21684 -1.36868,-1.6151 -1.79286,-0.56791 -2.16793,-2.09284 -0.70082,-2.84932 0.93396,-0.48157 1.44471,-0.41 2.27274,0.31847 0.70938,0.62408 0.7166,0.65347 0.16266,0.66146 -0.31883,0.005 -0.65328,-0.11071 -0.74322,-0.25623 -0.25522,-0.41296 -1.35211,-0.31073 -1.74496,0.16262 -0.30395,0.36624 -0.26664,0.49838 0.2615,0.92604 0.33883,0.27437 0.81449,0.49884 1.05703,0.49884 0.81574,0 1.61706,0.78474 1.61706,1.58361 0,0.72338 -0.57577,1.59139 -1.05559,1.59139 -0.12323,0 -0.38262,0.0454 -0.57642,0.10085 -0.1938,0.0555 -0.59049,0.0432 -0.88153,-0.0273 z m -76.539686,-2.9178 0.0751,-2.84427 1.785938,-0.0782 c 1.468317,-0.0643 1.785937,-0.006 1.785937,0.33073 0,0.31932 -0.31896,0.40896 -1.455208,0.40896 H 96.50765 v 0.92604 0.92604 h 1.322916 c 0.999537,0 1.322917,0.097 1.322917,0.39688 0,0.29986 -0.32338,0.39687 -1.322917,0.39687 H 96.50765 v 1.19063 c 0,0.89362 -0.101236,1.19062 -0.405827,1.19062 -0.344202,0 -0.394423,-0.43189 -0.330729,-2.84427 z m 17.405306,-0.0811 v -2.96948 l 1.48251,0.15301 c 0.84064,0.0868 1.6998,0.34965 1.98438,0.60719 0.70915,0.64177 0.6448,1.82756 -0.1308,2.41033 l -0.63266,0.47538 0.6578,1.12447 c 0.53617,0.91655 0.58123,1.12448 0.24369,1.12448 -0.22777,0 -0.68557,-0.47533 -1.01733,-1.05629 -0.47926,-0.83924 -0.7569,-1.05672 -1.35109,-1.05833 -0.70043,-0.002 -0.74257,0.0596 -0.66422,0.96901 0.0519,0.6022 -0.0409,1.01259 -0.24431,1.08039 -0.24792,0.0826 -0.32797,-0.61548 -0.32797,-2.86016 z m 2.75649,-0.14563 c 0.52229,-0.20042 0.54678,-1.25566 0.0389,-1.67714 -0.20878,-0.17327 -0.77432,-0.27715 -1.25677,-0.23084 -0.80478,0.0772 -0.88396,0.1661 -0.9593,1.07639 -0.0805,0.97211 -0.0635,0.99219 0.83826,0.99219 0.5062,0 1.1087,-0.0723 1.33889,-0.1606 z m 5.71018,0.1606 c 0,-2.32468 0.0749,-2.91042 0.37214,-2.91042 0.20468,0 1.06788,1.02567 1.91823,2.27927 l 1.54609,2.27927 0.13229,-2.14999 c 0.19429,-3.15763 0.64741,-2.80819 0.73655,0.56801 0.0682,2.58371 0.0319,2.84348 -0.39687,2.8356 -0.2896,-0.005 -1.03427,-0.83812 -1.92718,-2.15524 l -1.45521,-2.14657 -0.0768,2.15524 c -0.0598,1.67774 -0.1624,2.15524 -0.46302,2.15524 -0.3151,0 -0.38617,-0.53561 -0.38617,-2.91041 z m 9.58219,0.0877 c 0.0523,-1.96739 0.17532,-2.856 0.40583,-2.93247 0.25129,-0.0834 0.33073,0.59465 0.33073,2.82275 0,2.45899 -0.0655,2.93246 -0.40583,2.93246 -0.34405,0 -0.39439,-0.42971 -0.33073,-2.82274 z m 6.85578,0.63993 c 0.008,-1.20055 0.004,-2.33164 -0.01,-2.51354 -0.0135,-0.18573 -0.37208,-0.33073 -0.81785,-0.33073 -0.53879,0 -0.79375,-0.13105 -0.79375,-0.408 0,-0.33887 0.34386,-0.39491 2.02929,-0.33073 1.33013,0.0506 2.06699,0.19122 2.13872,0.408 0.0739,0.22341 -0.19822,0.33073 -0.83867,0.33073 h -0.94809 v 2.51354 c 0,2.02984 -0.0745,2.51354 -0.38716,2.51354 -0.30969,0 -0.38428,-0.43672 -0.37278,-2.18281 z m 16.10578,-0.76462 v -2.94743 l 1.52135,0.15672 c 2.33052,0.24008 3.15521,1.6148 1.78856,2.98145 l -0.65884,0.65884 0.66216,1.04893 c 0.52852,0.83723 0.57959,1.04892 0.25304,1.04892 -0.22502,0 -0.6568,-0.41979 -0.95953,-0.93287 -1.01217,-1.7155 -2.07758,-1.76853 -2.07758,-0.10341 0,0.56996 -0.11906,1.03628 -0.26458,1.03628 -0.16055,0 -0.26458,-1.15886 -0.26458,-2.94743 z m 3.01441,-0.5583 c 0.47165,-0.75259 -0.1169,-1.37621 -1.38771,-1.47042 l -1.09754,-0.0814 v 1.08876 1.08876 l 1.09754,-0.0814 c 0.69148,-0.0513 1.20488,-0.25266 1.38771,-0.54438 z m 5.50945,0.66146 0.0751,-2.84427 1.78593,-0.0782 c 1.46832,-0.0643 1.78594,-0.006 1.78594,0.33073 0,0.31932 -0.31896,0.40896 -1.45521,0.40896 h -1.45521 v 0.92604 0.92604 h 1.32292 c 0.99954,0 1.32292,0.097 1.32292,0.39688 0,0.29986 -0.32338,0.39687 -1.32292,0.39687 h -1.32292 v 0.92605 0.92604 h 1.5875 c 0.88195,0 1.5875,0.11759 1.5875,0.26458 0,0.15298 -0.84083,0.26458 -1.99332,0.26458 h -1.99333 z M 60.325878,182.28428 c 3.310599,-0.042 8.727943,-0.042 12.038542,0 3.310599,0.042 0.601927,0.0763 -6.019271,0.0763 -6.621198,0 -9.32987,-0.0344 -6.019271,-0.0763 z m 125.147922,0 c 3.3106,-0.042 8.72794,-0.042 12.03854,0 3.3106,0.042 0.60193,0.0763 -6.01927,0.0763 -6.6212,0 -9.32987,-0.0344 -6.01927,-0.0763 z M 57.381807,173.21103 c -1.487374,-0.33374 -3.20601,-1.99505 -2.778866,-2.68619 0.27942,-0.45211 1.517676,-0.18881 2.108089,0.44825 1.137976,1.2279 3.548702,0.77637 3.548702,-0.66467 0,-0.91548 -0.534565,-1.31657 -2.645833,-1.98518 -1.747981,-0.55356 -2.269045,-0.97097 -2.648904,-2.12195 -0.359138,-1.0882 0.16394,-2.51531 1.161516,-3.16894 1.54399,-1.01166 4.162927,-0.71518 5.187417,0.58724 0.722417,0.91841 0.670667,1.31225 -0.1943,1.47873 -0.499903,0.0962 -0.869704,-0.0119 -1.181674,-0.34536 -0.658719,-0.70417 -1.46191,-0.88385 -2.334761,-0.52231 -0.949172,0.39316 -1.242913,1.19332 -0.670335,1.82601 0.233744,0.25829 1.151345,0.68953 2.039114,0.95833 2.154318,0.65227 3.139844,1.6334 3.139844,3.12583 0,0.61127 -0.185822,1.3767 -0.412937,1.70095 -0.787199,1.12389 -2.702807,1.73147 -4.317072,1.36926 z m 9.227925,-5.28065 v -5.29166 h 0.919218 c 0.863183,0 1.017751,0.14654 2.535637,2.40396 l 1.61642,2.40396 1.63155,-2.39482 c 1.486271,-2.18157 1.708119,-2.39563 2.491446,-2.40396 l 0.859896,-0.009 v 5.29166 5.29167 h -0.786485 -0.786486 l -0.07341,-3.76474 -0.07341,-3.76474 -1.455209,2.1683 c -0.800364,1.19256 -1.5843,2.17232 -1.742079,2.17724 -0.15778,0.005 -0.961452,-0.96703 -1.785938,-2.15988 l -1.499066,-2.16881 v 3.75631 3.75632 h -0.926042 -0.926042 z m 15.610417,0 v -5.29166 h 0.926042 0.926042 v 5.29166 5.29167 h -0.926042 -0.926042 z m 9.260417,0.79375 v -4.49791 h -1.455208 c -1.440509,0 -1.455208,-0.008 -1.455208,-0.79375 v -0.79375 h 3.836458 3.836458 v 0.79375 c 0,0.78573 -0.0147,0.79375 -1.455208,0.79375 H 93.33265 v 4.49791 4.49792 h -0.926042 -0.926042 z m 8.995834,-0.79375 v -5.29166 h 0.92604 0.92604 v 2.24896 2.24895 h 2.51354 2.51355 v -2.24895 -2.24896 h 0.92604 0.92604 v 5.29166 5.29167 h -0.92604 -0.92604 v -2.24896 -2.24896 h -2.51355 -2.51354 v 2.24896 2.24896 h -0.92604 -0.92604 z"
           id="path32" /></g></g></g></svg>
