<?xml version="1.0" encoding="UTF-8" standalone="no"?>
<!-- Created with Inkscape (http://www.inkscape.org/) -->

<svg
   width="43.635815mm"
   height="60.837326mm"
   viewBox="0 0 43.635815 60.837326"
   version="1.1"
   id="svg1"
   xml:space="preserve"
   inkscape:version="1.4.2 (f4327f4, 2025-05-13)"
   sodipodi:docname="smithSVGLogo.svg"
   xmlns:inkscape="http://www.inkscape.org/namespaces/inkscape"
   xmlns:sodipodi="http://sodipodi.sourceforge.net/DTD/sodipodi-0.dtd"
   xmlns="http://www.w3.org/2000/svg"
   xmlns:svg="http://www.w3.org/2000/svg"><sodipodi:namedview
     id="namedview1"
     pagecolor="#ffffff"
     bordercolor="#000000"
     borderopacity="0.25"
     inkscape:showpageshadow="2"
     inkscape:pageopacity="0.0"
     inkscape:pagecheckerboard="0"
     inkscape:deskcolor="#d1d1d1"
     inkscape:document-units="mm"
     inkscape:zoom="0.6236289"
     inkscape:cx="-2491.0648"
     inkscape:cy="-829.82043"
     inkscape:window-width="1366"
     inkscape:window-height="697"
     inkscape:window-x="-8"
     inkscape:window-y="-8"
     inkscape:window-maximized="1"
     inkscape:current-layer="layer1"><inkscape:page
       x="0"
       y="0"
       width="43.635815"
       height="60.837326"
       id="page2"
       margin="0"
       bleed="0" /></sodipodi:namedview><defs
     id="defs1" /><g
     inkscape:label="Layer 1"
     inkscape:groupmode="layer"
     id="layer1"
     transform="translate(-76.68968,-145.27599)"><g
       id="g22"><path
         style="fill:#e6bd68"
         d="m 92.634875,205.99119 c -3.75299,-0.4448 -7.07258,-1.99391 -10.01719,-4.67459 -4.40838,-4.01325 -5.92333,-7.847 -5.92798,-15.00142 -0.002,-2.76712 0.13161,-3.18396 0.77786,-2.4304 0.17958,0.20939 1.50591,1.27445 2.94741,2.36681 l 2.62091,1.98609 0.30366,2.01621 c 0.39917,2.65028 1.474,4.79032 3.35475,6.67947 3.03288,3.04641 7.10413,4.12186 12.07061,3.18854 0.72906,-0.13701 0.8299,-0.0531 1.714265,1.42598 0.51681,0.86436 1.18835,1.98002 1.49232,2.47924 l 0.55267,0.90768 -2.00874,0.51063 c -2.410585,0.61278 -5.506185,0.82716 -7.880545,0.54576 z m 7.29197,-7.88305 c -2.47888,-0.51522 -5.68217,-2.14473 -7.561,-3.84627 -1.92013,-1.73895 -3.31241,-3.92064 -4.23412,-6.63483 -0.62289,-1.83427 -0.68868,-2.43047 -0.79822,-7.23386 -0.11878,-5.20843 -0.11676,-5.23301 0.40002,-4.87261 0.28567,0.19922 1.75169,1.36556 3.25783,2.59185 l 2.73843,2.22963 v 1.80862 c 0,5.57512 3.87958,10.04169 9.134475,10.51656 5.02357,0.45397 9.38661,-2.52225 10.71942,-7.31218 0.19415,-0.69777 0.28853,-7.1872 0.29887,-20.55102 0.0116,-14.98975 0.087,-19.53048 0.32416,-19.52805 0.16997,0.002 1.61624,1.0769 3.21392,2.38924 l 2.90487,2.38609 v 17.23927 c 0,19.18156 0.002,19.14974 -1.73279,22.68731 -1.28506,2.61985 -4.36497,5.61081 -7.04638,6.84287 -3.43991,1.58058 -7.85516,2.06977 -11.619485,1.28738 z m 10.964225,-22.91947 c -0.85746,-0.71769 -2.04355,-1.69845 -2.63577,-2.17946 -0.9714,-0.78899 -1.11553,-1.05722 -1.47292,-2.74115 -1.235,-5.81884 -5.84306,-9.50285 -11.886445,-9.50285 -2.53223,0 -4.87484,0.61982 -6.65478,1.76075 -1.67341,1.07265 -3.64276,3.22752 -4.4399,4.85816 -0.81579,1.66877 -1.24357,4.60415 -1.02916,7.06188 0.0888,1.01835 0.0564,1.81161 -0.074,1.81161 -0.25072,0 -5.15574,-3.91942 -5.68808,-4.54515 -0.4015,-0.47192 0.16952,-3.9871 0.9649,-5.93986 3.05801,-7.50786 11.97317,-12.04724 20.41173,-10.39316 6.717255,1.31668 11.569465,5.43029 13.574025,11.50777 0.54179,1.64264 0.68565,2.67838 0.80692,5.80965 0.0852,2.20112 0.0494,3.80769 -0.085,3.80367 -0.1279,-0.004 -0.9341,-0.59416 -1.79155,-1.31186 z"
         id="path22"
         inkscape:export-filename="path22.svg"
         inkscape:export-xdpi="96"
         inkscape:export-ydpi="96" /><path
         style="fill:#6f1c64"
         d="m 91.534995,205.83658 c -2.13598,-0.51742 -4.73933,-1.5309 -6.06936,-2.3628 -3.85891,-2.41363 -6.65874,-5.87883 -7.85747,-9.72475 -0.54319,-1.74272 -0.93184,-6.39109 -0.70596,-8.44363 l 0.17299,-1.57201 3.02113,2.32164 c 2.81934,2.16657 3.02199,2.38072 3.03398,3.20618 0.0392,2.70101 1.69384,6.10689 3.94792,8.12642 2.70469,2.42325 5.11188,3.2411 8.95872,3.04376 1.35836,-0.0697 2.66118,-0.20377 2.89517,-0.29797 0.33108,-0.1333 0.74619,0.33056 1.872015,2.09187 0.79564,1.24472 1.44661,2.36111 1.44661,2.48086 0,0.55413 -3.058755,1.10106 -6.584365,1.17733 -1.98823,0.043 -3.84735,0.0219 -4.13138,-0.0469 z"
         id="path21" /></g></g></svg>
